<?xml version="1.0" encoding="UTF-8"?>
<svg width="60px" height="60px" viewBox="0 0 60 60" xmlns="http://www.w3.org/2000/svg">
    <title>Legal Pattern Background (Dark Mode)</title>
    <defs>
        <pattern id="legal-pattern-dark" x="0" y="0" width="60" height="60" patternUnits="userSpaceOnUse">
            <!-- Background -->
            <rect width="60" height="60" fill="#1E1E1E"/>
            
            <!-- Subtle grid lines -->
            <path d="M0,0 L60,0 L60,60 L0,60 Z" stroke="#383838" stroke-width="0.5" fill="none"/>
            <path d="M15,0 L15,60" stroke="#383838" stroke-width="0.25" fill="none"/>
            <path d="M30,0 L30,60" stroke="#383838" stroke-width="0.25" fill="none"/>
            <path d="M45,0 L45,60" stroke="#383838" stroke-width="0.25" fill="none"/>
            <path d="M0,15 L60,15" stroke="#383838" stroke-width="0.25" fill="none"/>
            <path d="M0,30 L60,30" stroke="#383838" stroke-width="0.25" fill="none"/>
            <path d="M0,45 L60,45" stroke="#383838" stroke-width="0.25" fill="none"/>
            
            <!-- Legal Icons (Scales, Gavel, Book) in subtle blue -->
            
            <!-- Scales Icon -->
            <g transform="translate(7.5, 7.5)" fill="#2A4D6E" fill-opacity="0.4">
                <rect x="7" y="0" width="1" height="12" />
                <rect x="3" y="4" width="9" height="1" />
                <circle cx="3" cy="8" r="3" fill="none" stroke="#2A4D6E" stroke-opacity="0.4" stroke-width="0.75" />
                <circle cx="12" cy="8" r="3" fill="none" stroke="#2A4D6E" stroke-opacity="0.4" stroke-width="0.75" />
            </g>
            
            <!-- Gavel Icon -->
            <g transform="translate(37.5, 7.5)" fill="#2A4D6E" fill-opacity="0.4">
                <rect transform="translate(7.5, 3.5) rotate(45) translate(-7.5, -3.5)" x="2.5" y="3" width="10" height="1" />
                <rect transform="translate(7.5, 3.5) rotate(45) translate(-7.5, -3.5)" x="7" y="-1.5" width="1" height="10" />
                <rect x="2" y="8" width="6" height="3" />
                <rect x="3.5" y="11" width="3" height="4" />
            </g>
            
            <!-- Book Icon -->
            <g transform="translate(7.5, 37.5)" fill="#2A4D6E" fill-opacity="0.4">
                <rect x="1" y="2" width="13" height="10" rx="1" />
                <path d="M7.5,2 L7.5,12" stroke="#2A4D6E" stroke-width="0.75" stroke-opacity="0.4" />
                <path d="M3,5 L6,5 M3,7 L6,7 M3,9 L6,9" stroke="#2A4D6E" stroke-width="0.75" stroke-opacity="0.4" />
                <path d="M9,5 L12,5 M9,7 L12,7 M9,9 L12,9" stroke="#2A4D6E" stroke-width="0.75" stroke-opacity="0.4" />
            </g>
            
            <!-- Paragraph Symbol Icon -->
            <g transform="translate(37.5, 37.5)" fill="#2A4D6E" fill-opacity="0.4">
                <path d="M7,2 C10.3137085,2 13,4.6862915 13,8 L13,8 L8,8 L8,12 L6,12 L6,2 Z" />
                <rect x="3" y="2" width="2" height="10" />
            </g>
        </pattern>
    </defs>
    
    <rect width="60" height="60" fill="url(#legal-pattern-dark)" />
</svg> 